<?xml version="1.0" standalone="no"?><!DOCTYPE svg PUBLIC "-//W3C//DTD SVG 1.1//EN" "http://www.w3.org/Graphics/SVG/1.1/DTD/svg11.dtd"><svg width="100%" height="100%" viewBox="0 0 374 194" version="1.1" xmlns="http://www.w3.org/2000/svg" xmlns:xlink="http://www.w3.org/1999/xlink" xml:space="preserve" style="fill-rule:evenodd;clip-rule:evenodd;stroke-linejoin:round;stroke-miterlimit:1.41421;"><g><path d="M173.188,156.266l0,-14.456l2.797,0.333c18.541,2.192 38.047,7.418 46.348,16.022c0.103,0.107 0.205,0.214 0.304,0.322c0.082,0.089 0.163,0.179 0.243,0.268l0.01,0.012l0.06,0.067l0.059,0.068l0.059,0.068l0.02,0.023c0.086,0.1 0.171,0.202 0.255,0.303c0.035,0.044 0.071,0.087 0.106,0.13l0.018,0.023l0.017,0.022c0.058,0.071 0.114,0.143 0.17,0.215l0.031,0.04l0.053,0.069l0.017,0.023c0.156,0.205 0.306,0.412 0.449,0.621l0.04,0.059l0.004,0.006c1.428,2.102 2.214,4.383 2.214,6.846c0,17.313 -38.595,26.65 -74.909,26.65c-36.269,0 -74.815,-9.316 -74.904,-26.59l0,-0.06c0,-14.182 26.078,-22.322 50.479,-25.207l2.797,-0.333l0,14.456l-2.263,0.223c-24.799,2.393 -36.354,7.893 -36.354,10.861c0,0.114 0.015,0.232 0.046,0.351c0.008,0.029 0.016,0.059 0.026,0.088c0.01,0.031 0.02,0.062 0.032,0.094c1.625,4.28 22.21,11.454 60.141,11.454c39.554,0 60.247,-7.801 60.247,-11.987c0,-0.493 -0.319,-1.056 -0.964,-1.663c-0.061,-0.057 -0.125,-0.115 -0.192,-0.173c-0.057,-0.05 -0.117,-0.1 -0.179,-0.151l-0.054,-0.044c-0.205,-0.164 -0.433,-0.332 -0.684,-0.502l-0.051,-0.034l-0.056,-0.037c-4.403,-2.913 -15.554,-6.461 -34.168,-8.257l-2.264,-0.223ZM149.231,123.432l9.656,0l0,43.918c0,4.042 -3.291,7.332 -7.334,7.332c-2.103,0 -4.002,-0.891 -5.339,-2.315c-1.233,-1.313 -1.989,-3.078 -1.989,-5.017l0,-43.918l5.006,0Z" style="fill:#f04d44;"/><path d="M87.429,108.782c0,12.159 -3.909,22.493 -11.303,29.891c-7.562,7.571 -18.814,11.754 -31.691,11.787l-0.152,0c-14.457,0 -27.759,-4.429 -39.533,-13.171l-1.991,-1.478l7.686,-10.589l2.041,1.571c9.633,7.421 20.386,11.186 31.957,11.186l0.22,-0.001c18.66,-0.086 29.793,-11.171 29.793,-29.686l0,-4.882c-8.65,9.502 -19.581,14.495 -31.977,14.534l-0.146,0c-20.81,0 -42.333,-15.527 -42.333,-41.515c0,-26.172 21.972,-42.171 42.333,-42.171l0.176,0c14.966,0.052 25.23,6.744 31.947,13.958l0,-12.004l12.973,0l0,72.57ZM43.146,46.903c-14.671,0 -29.523,9.92 -29.523,28.874c0,16.703 12.967,29.524 29.523,29.524l0.179,-0.001c15.243,-0.086 31.617,-11.171 31.617,-29.033c0,-18.432 -16.04,-29.279 -31.613,-29.364l-0.183,0Z" style="fill:#fff;"/><path d="M152.383,34.258c25.123,0.078 44.783,20.075 44.783,45.585c0,26.017 -19.8,46.156 -45.106,46.235l-0.149,0c-25.198,0 -44.935,-20.023 -44.935,-45.587c0,-26.066 19.881,-46.233 45.259,-46.233l0.148,0ZM151.911,46.744c-17.85,0 -31.312,14.226 -31.312,33.099c0,19.064 13.897,33.751 31.636,33.751l0.209,-0.001c17.745,-0.11 31.101,-14.307 31.101,-33.102c0,-18.991 -13.789,-33.632 -31.426,-33.746l-0.208,-0.001Z" style="fill:#f04d44;"/><path d="M243.681,34.586c10.147,0.056 21.84,3.694 30.576,9.523l2.035,1.36l-6.904,10.877l-2.125,-1.4c-7.651,-5.042 -16.155,-7.836 -23.964,-7.879l-0.184,-0.001c-9.628,0 -16.353,4.923 -16.353,11.967c0,7.353 8.817,10.43 21.274,14.012c10.882,3.057 29.123,8.169 29.123,25.658c0,15.747 -12.984,26.96 -30.904,27.047l-0.211,0.001c-12.207,0 -26.165,-4.942 -35.557,-12.592l-1.855,-1.514l7.66,-10.304l2.018,1.55c8.961,6.884 18.455,10.373 28.222,10.373l0.121,0c10.234,-0.043 17.369,-5.486 17.369,-13.261c0,-8.193 -9.112,-11.402 -20.122,-14.502l-0.707,-0.203c-13.169,-3.805 -29.565,-8.536 -29.565,-24.965c0,-15.056 12.541,-25.748 29.814,-25.748l0.239,0.001Z" style="fill:#fff;"/><path d="M310.492,124.124l-12.971,0l0,-123.679l12.971,0l0,45.801c6.827,-7.878 16.165,-11.988 27.407,-11.988c21.664,0 35.664,14.381 35.664,36.646l0,53.22l-12.972,0l0,-51.758c0,-16.149 -8.908,-25.79 -23.828,-25.79c-15.222,0 -26.271,11.392 -26.271,27.091l0,50.457Z" style="fill:#fff;"/></g></svg>