<?xml version="1.0" standalone="no"?><!DOCTYPE svg PUBLIC "-//W3C//DTD SVG 1.1//EN" "http://www.w3.org/Graphics/SVG/1.1/DTD/svg11.dtd"><svg width="100%" height="100%" viewBox="0 0 438 145" version="1.1" xmlns="http://www.w3.org/2000/svg" xmlns:xlink="http://www.w3.org/1999/xlink" xml:space="preserve" style="fill-rule:evenodd;clip-rule:evenodd;stroke-linejoin:round;stroke-miterlimit:1.41421;"><g><path d="M6.286,50.765l0,16.764l18.786,0l0,5.839l-18.786,0l0,27.991l-6.286,0l0,-56.433l25.672,0l0,5.839l-19.386,0Z" style="fill:#221e1f;fill-rule:nonzero;"/><path d="M199.168,95.522c6.886,0 12.649,-0.973 17.814,-5.839c4.64,-4.34 7.035,-10.253 7.035,-16.54c0,-6.437 -2.47,-12.648 -7.335,-16.915c-5.164,-4.566 -10.852,-5.463 -17.514,-5.463l-4.565,0l0,44.757l4.565,0ZM188.316,44.926l10.628,0c8.457,0 15.343,1.123 22.004,6.812c6.437,5.537 9.356,13.097 9.356,21.48c0,8.232 -2.994,15.492 -9.206,21.032c-6.736,5.987 -13.472,7.109 -22.304,7.109l-10.478,0l0,-56.433Z" style="fill:#221e1f;fill-rule:nonzero;"/><path d="M385.239,41.708l20.507,47.378l20.583,-47.378l11.451,59.651l-6.437,0l-7.26,-38.17l-0.15,0l-18.187,40.491l-18.112,-40.491l-0.15,0l-7.26,38.17l-6.437,0l11.452,-59.651Z" style="fill:#221e1f;fill-rule:nonzero;"/><path d="M129.889,0.387l-35.774,144.613l7.185,0l35.773,-144.613l-7.184,0Z" style="fill:#f26721;fill-rule:nonzero;"/><path d="M323.659,0.387l-35.772,144.613l7.184,0l35.772,-144.613l-7.184,0Z" style="fill:#f26721;fill-rule:nonzero;"/></g></svg>